<svg width="716" height="213" viewBox="0 0 716 213" fill="none" xmlns="http://www.w3.org/2000/svg">
<path d="M9.34821e-06 85.5489C-0.00366489 80.0582 1.07579 74.6207 3.17656 69.5478C5.27734 64.4748 8.35816 59.8661 12.2426 55.9855C16.1271 52.105 20.7389 49.0288 25.8139 46.9331C30.8889 44.8374 36.3275 43.7634 41.8182 43.7725H97.5758C120.666 43.7725 139.394 62.5559 139.394 85.5489V169.227H41.8182C18.7276 169.227 9.34821e-06 150.444 9.34821e-06 127.451V85.5489ZM83.6364 99.5301V113.469H97.5758V99.5301H83.6364ZM41.8182 99.5301V113.469H55.7576V99.5301H41.8182Z" fill="#2464E9"/>
<path d="M203.067 164.84C193.142 164.84 184.499 163.335 177.139 160.324C169.891 157.313 163.256 152.573 157.234 146.105L176.136 127.036C180.262 131.385 184.667 134.731 189.35 137.073C194.034 139.303 199.331 140.418 205.241 140.418C210.259 140.418 214.107 139.582 216.783 137.909C219.571 136.125 220.965 133.727 220.965 130.716C220.965 127.928 219.961 125.642 217.954 123.858C215.947 121.962 213.27 120.345 209.925 119.007C206.691 117.558 203.067 116.219 199.052 114.993C195.149 113.655 191.19 112.093 187.176 110.309C183.273 108.413 179.648 106.127 176.303 103.451C173.069 100.775 170.448 97.4291 168.441 93.4145C166.434 89.4 165.43 84.4376 165.43 78.5273C165.43 70.9442 167.215 64.4764 170.783 59.1236C174.463 53.7709 179.537 49.6448 186.005 46.7454C192.473 43.846 200 42.3964 208.587 42.3964C217.173 42.3964 225.091 43.846 232.339 46.7454C239.588 49.6448 245.554 53.6594 250.238 58.7891L231.168 77.6909C227.6 74.1224 223.976 71.446 220.296 69.6618C216.616 67.8776 212.601 66.9854 208.252 66.9854C204.126 66.9854 200.892 67.7103 198.55 69.16C196.208 70.6097 195.038 72.6727 195.038 75.3491C195.038 78.0254 196.041 80.2 198.048 81.8727C200.056 83.5454 202.676 85.0509 205.91 86.3891C209.256 87.6157 212.88 88.8982 216.783 90.2364C220.798 91.5745 224.756 93.1358 228.659 94.92C232.562 96.7042 236.131 98.9903 239.365 101.778C242.71 104.566 245.387 108.079 247.394 112.316C249.401 116.554 250.405 121.684 250.405 127.705C250.405 139.526 246.223 148.67 237.859 155.138C229.607 161.606 218.01 164.84 203.067 164.84ZM316.595 163V116.833C316.595 113.041 315.48 110.086 313.25 107.967C311.019 105.737 308.176 104.622 304.719 104.622C302.377 104.622 300.258 105.124 298.362 106.127C296.578 107.131 295.184 108.525 294.181 110.309C293.177 112.093 292.675 114.268 292.675 116.833L281.301 111.48C281.301 104.901 282.75 99.2691 285.65 94.5854C288.549 89.7903 292.508 86.1103 297.526 83.5454C302.656 80.8691 308.455 79.5309 314.922 79.5309C320.833 79.5309 326.074 80.9248 330.646 83.7127C335.33 86.3891 339.01 90.0133 341.686 94.5854C344.362 99.1576 345.701 104.343 345.701 110.142V163H316.595ZM263.57 163V81.2036H292.675V163H263.57ZM360.924 163V81.2036H390.196V163H360.924ZM375.476 71.6691C371.127 71.6691 367.503 70.2194 364.604 67.32C361.704 64.3091 360.255 60.5733 360.255 56.1127C360.255 51.7636 361.704 48.0836 364.604 45.0727C367.503 42.0618 371.127 40.5563 375.476 40.5563C380.049 40.5563 383.729 42.0618 386.516 45.0727C389.416 48.0836 390.866 51.7636 390.866 56.1127C390.866 60.5733 389.416 64.3091 386.516 67.32C383.729 70.2194 380.049 71.6691 375.476 71.6691ZM455.833 164.673C450.592 164.673 445.741 163.725 441.28 161.829C436.819 159.933 433.139 157.368 430.24 154.135C427.341 150.789 425.556 146.942 424.887 142.593V102.782C425.556 98.4327 427.341 94.5297 430.24 91.0727C433.251 87.5042 436.931 84.7164 441.28 82.7091C445.741 80.5903 450.592 79.5309 455.833 79.5309C463.75 79.5309 470.72 81.3709 476.742 85.0509C482.764 88.6194 487.447 93.6376 490.793 100.105C494.25 106.573 495.978 113.933 495.978 122.185C495.978 130.326 494.25 137.63 490.793 144.098C487.447 150.455 482.764 155.473 476.742 159.153C470.72 162.833 463.75 164.673 455.833 164.673ZM450.313 138.745C453.547 138.745 456.39 138.021 458.844 136.571C461.297 135.121 463.193 133.17 464.531 130.716C465.869 128.152 466.538 125.252 466.538 122.018C466.538 118.784 465.869 115.941 464.531 113.487C463.193 111.034 461.297 109.082 458.844 107.633C456.39 106.183 453.602 105.458 450.48 105.458C447.469 105.458 444.737 106.183 442.284 107.633C439.83 108.971 437.935 110.922 436.596 113.487C435.258 115.941 434.589 118.784 434.589 122.018C434.589 125.252 435.258 128.152 436.596 130.716C437.935 133.17 439.775 135.121 442.116 136.571C444.57 138.021 447.302 138.745 450.313 138.745ZM407.156 197.625V81.2036H436.262V101.778L431.411 121.516L435.593 141.422V197.625H407.156ZM556.621 164.673C551.38 164.673 546.529 163.725 542.068 161.829C537.608 159.933 533.928 157.368 531.028 154.135C528.129 150.789 526.345 146.942 525.676 142.593V102.782C526.345 98.4327 528.129 94.5297 531.028 91.0727C534.039 87.5042 537.719 84.7164 542.068 82.7091C546.529 80.5903 551.38 79.5309 556.621 79.5309C564.539 79.5309 571.508 81.3709 577.53 85.0509C583.552 88.6194 588.236 93.6376 591.581 100.105C595.038 106.573 596.767 113.933 596.767 122.185C596.767 130.326 595.038 137.63 591.581 144.098C588.236 150.455 583.552 155.473 577.53 159.153C571.508 162.833 564.539 164.673 556.621 164.673ZM551.101 138.745C554.335 138.745 557.179 138.021 559.632 136.571C562.085 135.121 563.981 133.17 565.319 130.716C566.657 128.152 567.327 125.252 567.327 122.018C567.327 118.784 566.657 115.941 565.319 113.487C563.981 111.034 562.085 109.082 559.632 107.633C557.179 106.183 554.391 105.458 551.268 105.458C548.257 105.458 545.525 106.183 543.072 107.633C540.619 108.971 538.723 110.922 537.385 113.487C536.047 115.941 535.377 118.784 535.377 122.018C535.377 125.252 536.047 128.152 537.385 130.716C538.723 133.17 540.563 135.121 542.905 136.571C545.358 138.021 548.09 138.745 551.101 138.745ZM507.945 197.625V81.2036H537.05V101.778L532.199 121.516L536.381 141.422V197.625H507.945ZM608.566 163V81.2036H637.839V163H608.566ZM623.119 71.6691C618.769 71.6691 615.145 70.2194 612.246 67.32C609.346 64.3091 607.897 60.5733 607.897 56.1127C607.897 51.7636 609.346 48.0836 612.246 45.0727C615.145 42.0618 618.769 40.5563 623.119 40.5563C627.691 40.5563 631.371 42.0618 634.159 45.0727C637.058 48.0836 638.508 51.7636 638.508 56.1127C638.508 60.5733 637.058 64.3091 634.159 67.32C631.371 70.2194 627.691 71.6691 623.119 71.6691ZM666.006 163V47.4145H695.111V163H666.006ZM647.94 105.458V81.2036H713.177V105.458H647.94Z" fill="black"/>
</svg>
